<svg width="163" height="41" viewBox="0 0 163 41" fill="none" xmlns="http://www.w3.org/2000/svg">
<path d="M10.3925 22.5885H6.67803V31.7943H2.80554V7.09692H12.7238C17.9398 7.09692 20.9035 10.2601 20.9035 14.9238C20.9035 18.9792 18.6906 21.6152 14.8577 22.3452L22.0494 31.7537H17.2681L10.3925 22.5885ZM6.67803 19.0603H12.3287C15.5294 19.0603 16.9915 17.3571 16.9915 14.9644C16.9915 12.5717 15.4899 10.909 12.3287 10.909H6.67803V19.0603Z" fill="#231F20"/>
<path d="M87.0913 24.6973C87.0913 30.091 82.4286 32.1998 78.1214 32.1998C71.4038 32.1998 68.4402 28.3877 67.7684 24.1296H71.6804C72.3917 26.9684 74.2489 28.4689 78.0819 28.4689C81.3221 28.4689 83.1793 27.1711 83.1793 24.8596C83.1793 22.548 81.2036 22.183 76.7384 21.1692C72.0756 20.1147 68.4402 18.7765 68.4402 14.1533C68.4402 9.2463 72.6683 6.69141 77.2521 6.69141C83.2979 6.69141 86.064 9.89516 86.7752 13.8289H82.8632C82.1915 11.8012 80.5318 10.4629 77.2916 10.4629C74.0513 10.4629 72.3127 11.9229 72.3127 14.1128C72.3127 15.8566 73.6957 16.4243 77.6867 17.3165C83.7721 18.6548 87.0913 19.9525 87.0913 24.6973Z" fill="#231F20"/>
<path d="M107.284 12.4097V31.7945H103.411V28.5501C102.028 30.7806 99.7757 32.2 96.8121 32.2C91.7541 32.2 88.0792 28.0229 88.0792 22.1021C88.0792 16.1812 91.8332 12.0042 96.7726 12.0042C99.7757 12.0042 102.028 13.5046 103.411 15.7351V12.4097H107.284ZM103.451 22.1021C103.451 18.4117 100.961 15.7757 97.6419 15.7757C94.3621 15.7757 91.9912 18.3711 91.9912 22.1021C91.9912 25.833 94.3621 28.4285 97.6419 28.4285C100.922 28.3879 103.451 25.833 103.451 22.1021Z" fill="#231F20"/>
<path d="M109.812 4.66382H113.724V31.7944H109.812V4.66382Z" fill="#231F20"/>
<path d="M134.747 23.1971H119.415C119.731 26.7658 122.181 28.7124 125.303 28.7124C127.555 28.7124 129.452 27.7391 130.36 25.8331H134.391C132.929 30.1723 129.294 32.2 125.303 32.2C119.573 32.2 115.463 27.9824 115.463 22.1021C115.463 16.2623 119.533 11.9636 125.223 11.9636C131.309 11.9636 135.142 16.7895 134.747 23.1971ZM119.612 19.9527H130.598C130.005 17.3167 128.069 15.4107 125.223 15.4107C122.26 15.4107 120.284 17.3167 119.612 19.9527Z" fill="#231F20"/>
<path d="M145.179 8.23254V13.9101H143.361V8.63807C143.361 7.25924 142.768 6.48872 141.425 6.48872C139.884 6.48872 139.054 7.50256 139.054 9.24638V13.9101H137.236V4.90712H139.054V6.40761C139.686 5.35321 140.634 4.70435 141.978 4.70435C143.993 4.70435 145.179 6.04262 145.179 8.23254Z" fill="#7019E7"/>
<path d="M154.939 9.9358H147.787C147.945 11.5985 149.051 12.4907 150.553 12.4907C151.62 12.4907 152.489 12.0446 152.884 11.1524H154.741C154.07 13.1801 152.37 14.1129 150.513 14.1129C147.826 14.1129 145.929 12.1257 145.929 9.4086C145.929 6.69149 147.826 4.70435 150.474 4.70435C153.319 4.70435 155.097 6.97536 154.939 9.9358ZM147.866 8.4353H152.963C152.687 7.21869 151.778 6.3265 150.474 6.3265C149.091 6.3265 148.182 7.21869 147.866 8.4353Z" fill="#7019E7"/>
<path d="M162.407 13.464C161.933 13.7479 160.906 14.1128 159.918 14.1128C158.1 14.1128 156.717 12.9368 156.717 10.463V6.65093H155.097V4.90711H156.717V2.87942L158.535 2.47388V4.94767H162.131V6.69148H158.535V10.4224C158.535 11.7202 159.127 12.4501 160.273 12.4501C160.827 12.4501 161.459 12.2474 162.131 12.004L162.407 13.464Z" fill="#7019E7"/>
<path d="M63.0267 3.93384V18.6549H59.4308V10.3414C57.4946 12.5313 55.5583 14.8023 53.306 16.83C51.0536 18.8577 48.2085 20.2771 44.9683 21.2098C44.8102 25.9141 43.5062 30.6183 40.6611 34.2682C37.658 38.1208 33.0347 40.7162 27.1469 40.7162V37.0258C32.0468 37.0258 35.4451 35.0387 37.8555 31.9566C39.9498 29.28 41.0167 25.6707 41.2538 21.9803C40.7006 22.0209 40.266 22.3048 39.6732 22.3048C29.5969 22.3048 25.3292 16.0189 25.3292 11.2741C25.3292 9.57083 25.922 7.78646 27.1074 6.36707C28.3324 4.94769 30.2291 3.93384 32.4815 3.93384C36.8281 3.93384 40.0684 6.77261 42.0836 10.098C43.5457 12.4907 44.257 15.1267 44.6521 17.6411C46.9835 16.83 49.0383 15.6945 50.8955 14.0723C52.9898 12.2068 54.8866 9.89526 56.9413 7.62424H48.6432V3.93384H63.0267ZM32.521 7.62424C31.217 7.62424 30.4267 8.11089 29.834 8.80031C29.2412 9.48972 28.9251 10.463 28.9251 11.3146C28.9251 13.9101 30.9799 18.6955 39.6732 18.6955C40.266 18.6955 40.6216 18.4521 41.1353 18.4116C40.8192 16.3433 40.2264 14.0318 39.041 12.0852C37.4999 9.40862 35.3661 7.62424 32.521 7.62424Z" fill="#FF691E"/>
</svg>
